<?xml version="1.0" encoding="UTF-8"?> <svg xmlns="http://www.w3.org/2000/svg" fill="none" viewBox="0 0 160 60" width="100%"><path fill="#122087" d="M17.945 14C8.055 14 0 22.076 0 32c0 4.842 1.868 9.376 5.262 12.764C8.639 48.135 13.146 50 17.946 50c4.816 0 9.34-1.865 12.717-5.236C34.04 41.376 35.891 36.86 35.891 32c0-4.808-1.851-9.325-5.228-12.73C27.27 15.882 22.762 14 17.945 14zm-9.29 27.376c-2.21-2.224-3.53-5.098-3.804-8.212 6.29-2.43 10.284-3.303 13.146-2.91.548.086.84.172.994.24 0 .36-.137 1.078-.223 1.574-.343 1.763-.805 4.175.48 6.605 1.011 1.916 2.88 3.388 5.725 4.517-2.074 1.318-4.49 2.02-7.045 2.02-3.496 0-6.787-1.37-9.272-3.834zm20.191-1.95c-2.896-.804-4.747-1.848-5.364-3.012-.497-.924-.258-2.138 0-3.439.308-1.591.685-3.576-.515-5.27-.84-1.18-2.245-1.899-4.284-2.19-3.343-.479-7.32.206-13.198 2.31 1.73-5.236 6.667-9.034 12.46-9.034 3.531 0 6.84 1.369 9.307 3.867 2.469 2.48 3.84 5.817 3.84 9.342 0 2.703-.789 5.27-2.246 7.426zM69.519 22.538c-1.937-1.745-4.61-2.635-7.953-2.635h-8.039V44.25h4.954V38.69h3.102c3.325 0 6-.89 7.953-2.635 1.954-1.745 2.93-4.021 2.93-6.776-.016-2.72-.993-4.996-2.947-6.741zm-1.766 6.741c0 1.574-.548 2.772-1.645 3.56-1.097.786-2.502 1.197-4.148 1.197h-3.48v-9.462h3.48c1.629 0 3.034.41 4.13 1.232 1.098.804 1.663 1.968 1.663 3.473zM80.35 30.272h-4.559v13.996h4.56V30.272zM89.504 19.903H84.91V44.25h4.594V19.903zM101.279 26.576c-2.451 0-4.593.873-6.325 2.618-1.73 1.728-2.622 3.867-2.622 6.348 0 2.447.874 4.585 2.605 6.314 1.731 1.728 3.857 2.617 6.342 2.617 2.485 0 4.628-.872 6.359-2.617 1.731-1.729 2.622-3.867 2.622-6.314s-.874-4.586-2.622-6.33c-1.748-1.746-3.874-2.636-6.359-2.636zm4.371 8.966c0 1.335-.446 2.43-1.303 3.25-.874.84-1.902 1.25-3.068 1.25-1.2 0-2.228-.428-3.085-1.25-.857-.837-1.286-1.933-1.286-3.25 0-1.335.446-2.43 1.303-3.268.874-.838 1.903-1.266 3.068-1.266 1.166 0 2.211.428 3.068 1.266.874.838 1.303 1.933 1.303 3.268zM119.02 21.015h-4.593v5.8h-2.245v4.415h2.245v13.038h4.593V31.23h2.263v-4.415h-2.263v-5.8zM130.486 19.903h-4.079c-.154 0-.292.103-.326.257l-2.108 8.897c-.017.103 0 .205.069.29.068.086.154.12.257.12h2.725c.137 0 .257-.085.308-.222l3.446-8.897c.034-.103.034-.223-.035-.308-.034-.086-.137-.137-.257-.137zM138.714 30.272h-4.56v13.996h4.56V30.272zM158.063 28.869c-1.303-1.523-3.205-2.293-5.674-2.293-2.691 0-4.679.924-5.896 2.772l-.291-2.532H143.1v17.452h4.559v-8.555c0-1.591.36-2.772 1.045-3.559.703-.77 1.697-1.163 2.983-1.163 2.519 0 3.753 1.42 3.753 4.328v8.932H160v-9.205c.017-2.584-.652-4.654-1.937-6.177zM136.416 21.015c-.788 0-1.456.274-1.988.787-.548.53-.823 1.18-.823 1.968 0 .77.275 1.437.823 1.968.549.53 1.217.787 1.988.787.806 0 1.492-.274 2.04-.787.549-.53.823-1.181.823-1.968 0-.77-.274-1.437-.823-1.968-.548-.53-1.234-.787-2.04-.787zM77.848 20.724c-.857 0-1.611.291-2.211.873-.6.581-.909 1.3-.909 2.156 0 .855.309 1.59.909 2.155.6.582 1.337.873 2.211.873.891 0 1.645-.29 2.245-.872.6-.582.909-1.3.909-2.156 0-.856-.309-1.575-.909-2.156-.6-.582-1.354-.873-2.245-.873z" class="color2139E1 svgShape"></path></svg> 